Force Plate Walk 1
version=1
nRows=59
nColumns=19
inDegrees=yes
endheader
time	ground_force1_vx	ground_force1_vy	ground_force1_vz	ground_force1_px	ground_force1_py	ground_force1_pz	ground_torque1_x	ground_torque1_y	ground_torque1_z	ground_force2_vx	ground_force2_vy	ground_force2_vz	ground_force2_px	ground_force2_py	ground_force2_pz	ground_torque2_x	ground_torque2_y	ground_torque2_z
5.435000	-76.910767	653.456726	19.627218	0.628341	0.000000	-0.177974	0.000004	-1.353353	0.000016	-0.000000	-0.000000	0.000000	0.254000	0.000000	-0.232000	0.000000	0.000000	0.000000	
5.436000	-78.176041	654.661438	19.681499	0.628294	0.000000	-0.177901	0.000005	-1.350401	0.000048	-0.000000	-0.000000	0.000000	0.254000	0.000000	-0.232000	0.000000	0.000000	0.000000	
5.437000	-79.052086	655.261292	19.549643	0.627858	0.000000	-0.177805	-0.000005	-1.391381	0.000009	-0.000000	-0.000000	0.000000	0.254000	0.000000	-0.232000	0.000000	0.000000	0.000000	
5.438000	-79.714600	656.423889	19.460989	0.627666	0.000000	-0.177764	0.000009	-1.401438	0.000026	-0.000000	-0.000000	0.000000	0.254000	0.000000	-0.232000	0.000000	0.000000	0.000000	
5.439000	-80.640953	659.121155	19.582834	0.627871	0.000000	-0.177739	0.000010	-1.374672	0.000038	-0.000000	-0.000000	0.000000	0.254000	0.000000	-0.232000	0.000000	0.000000	0.000000	
5.440000	-80.815872	660.637268	19.364277	0.627575	0.000000	-0.177642	0.000004	-1.313783	0.000030	-0.000000	-0.000000	0.000000	0.254000	0.000000	-0.232000	0.000000	0.000000	0.000000	
5.441000	-82.289360	662.180969	19.678051	0.627170	0.000000	-0.177671	0.000011	-1.318428	0.000040	-0.000000	-0.000000	0.000000	0.254000	0.000000	-0.232000	0.000000	0.000000	0.000000	
5.442000	-83.389069	663.073608	19.327971	0.627031	0.000000	-0.177754	0.000008	-1.352515	0.000003	-0.000000	-0.000000	0.000000	0.254000	0.000000	-0.232000	0.000000	0.000000	0.000000	
5.443000	-83.893768	664.130005	19.442461	0.626894	0.000000	-0.177708	-0.000000	-1.290595	0.000007	-0.000000	-0.000000	0.000000	0.254000	0.000000	-0.232000	0.000000	0.000000	0.000000	
5.444000	-84.701408	666.348389	19.514891	0.627009	0.000000	-0.177673	-0.000004	-1.239858	0.000017	-0.000000	-0.000000	0.000000	0.254000	0.000000	-0.232000	0.000000	0.000000	0.000000	
5.445000	-85.718666	667.341370	19.341625	0.626735	0.000000	-0.177688	-0.000003	-1.272692	0.000019	-0.000000	-0.000000	0.000000	0.254000	0.000000	-0.232000	0.000000	0.000000	0.000000	
5.446000	-86.595146	668.223572	19.323040	0.626401	0.000000	-0.177470	0.000000	-1.232457	0.000004	-0.000000	-0.000000	0.000000	0.254000	0.000000	-0.232000	0.000000	0.000000	0.000000	
5.447000	-87.787827	668.487427	19.595539	0.626268	0.000000	-0.177233	0.000010	-1.246002	0.000049	-0.000000	-0.000000	0.000000	0.254000	0.000000	-0.232000	0.000000	0.000000	0.000000	
5.448000	-88.545074	671.643188	19.576393	0.626533	0.000000	-0.177495	0.000001	-1.168032	0.000029	-0.000000	-0.000000	0.000000	0.254000	0.000000	-0.232000	0.000000	0.000000	0.000000	
5.449000	-89.981331	671.717834	19.450371	0.626027	0.000000	-0.177341	-0.000002	-1.155377	0.000004	-0.000000	-0.000000	0.000000	0.254000	0.000000	-0.232000	0.000000	0.000000	0.000000	
5.450000	-90.544762	673.145447	19.191427	0.626058	0.000000	-0.177079	-0.000000	-1.165190	0.000050	-0.000000	-0.000000	0.000000	0.254000	0.000000	-0.232000	0.000000	0.000000	0.000000	
5.451000	-91.253288	673.476135	19.076563	0.625758	0.000000	-0.177300	0.000008	-1.170582	0.000001	-0.000000	-0.000000	0.000000	0.254000	0.000000	-0.232000	0.000000	0.000000	0.000000	
5.452000	-92.196724	675.318665	19.260719	0.625696	0.000000	-0.177548	0.000006	-1.039994	-0.000008	-0.000000	-0.000000	0.000000	0.254000	0.000000	-0.232000	0.000000	0.000000	0.000000	
5.453000	-93.194023	676.462952	19.357430	0.625594	0.000000	-0.177450	0.000002	-1.055085	0.000019	-0.000000	-0.000000	0.000000	0.254000	0.000000	-0.232000	0.000000	0.000000	0.000000	
5.454000	-94.053665	677.700195	19.603180	0.625410	0.000000	-0.177444	-0.000001	-1.008311	0.000039	-0.000000	-0.000000	0.000000	0.254000	0.000000	-0.232000	0.000000	0.000000	0.000000	
5.455000	-95.065331	678.218750	19.248219	0.625194	0.000000	-0.177407	-0.000001	-1.055024	0.000031	-0.000000	-0.000000	0.000000	0.254000	0.000000	-0.232000	0.000000	0.000000	0.000000	
5.456000	-96.108162	678.305725	19.301323	0.624985	0.000000	-0.177298	0.000005	-0.980860	0.000020	-0.000000	-0.000000	0.000000	0.254000	0.000000	-0.232000	0.000000	0.000000	0.000000	
5.457000	-96.873123	678.731201	19.114283	0.624553	0.000000	-0.177298	-0.000001	-0.963716	0.000019	-0.000000	-0.000000	0.000000	0.254000	0.000000	-0.232000	0.000000	0.000000	0.000000	
5.458000	-97.397614	679.241333	18.905119	0.624640	0.000000	-0.176897	0.000005	-0.950837	0.000050	-0.000000	-0.000000	0.000000	0.254000	0.000000	-0.232000	0.000000	0.000000	0.000000	
5.459000	-98.804352	679.826904	19.050348	0.624327	0.000000	-0.176899	0.000003	-0.935313	0.000036	-0.000000	-0.000000	0.000000	0.254000	0.000000	-0.232000	0.000000	0.000000	0.000000	
5.460000	-99.999893	680.885132	18.810850	0.624198	0.000000	-0.176971	0.000002	-0.917962	0.000009	-0.000000	-0.000000	0.000000	0.254000	0.000000	-0.232000	0.000000	0.000000	0.000000	
5.461000	-100.876564	680.738037	18.932493	0.623797	0.000000	-0.176874	0.000003	-0.899257	-0.000008	-0.000000	-0.000000	0.000000	0.254000	0.000000	-0.232000	0.000000	0.000000	0.000000	
5.462000	-101.828064	683.363037	18.677101	0.624134	0.000000	-0.177103	0.000009	-0.851039	0.000010	-0.000000	-0.000000	0.000000	0.254000	0.000000	-0.232000	0.000000	0.000000	0.000000	
5.463000	-102.383797	682.534180	18.533360	0.623485	0.000000	-0.177017	0.000013	-0.816538	0.000035	-0.000000	-0.000000	0.000000	0.254000	0.000000	-0.232000	0.000000	0.000000	0.000000	
5.464000	-103.011208	683.843750	18.595846	0.623582	0.000000	-0.176935	-0.000001	-0.762183	0.000010	-0.000000	-0.000000	0.000000	0.254000	0.000000	-0.232000	0.000000	0.000000	0.000000	
5.465000	-104.299355	684.034424	18.342400	0.623310	0.000000	-0.176629	0.000006	-0.831069	0.000018	-0.000000	-0.000000	0.000000	0.254000	0.000000	-0.232000	0.000000	0.000000	0.000000	
5.466000	-105.316040	684.739136	18.060471	0.623186	0.000000	-0.176501	0.000002	-0.819856	0.000004	-0.000000	-0.000000	0.000000	0.254000	0.000000	-0.232000	0.000000	0.000000	0.000000	
5.467000	-105.822151	685.168701	17.928514	0.623049	0.000000	-0.176516	0.000009	-0.723490	0.000026	-0.000000	-0.000000	0.000000	0.254000	0.000000	-0.232000	0.000000	0.000000	0.000000	
5.468000	-106.346336	684.978882	18.129177	0.622623	0.000000	-0.176609	0.000003	-0.642895	0.000040	-0.000000	-0.000000	0.000000	0.254000	0.000000	-0.232000	0.000000	0.000000	0.000000	
5.469000	-107.578598	684.938477	17.868860	0.622584	0.000000	-0.176243	-0.000005	-0.590812	-0.000008	-0.000000	-0.000000	0.000000	0.254000	0.000000	-0.232000	0.000000	0.000000	0.000000	
5.470000	-108.364494	684.920837	17.884745	0.622305	0.000000	-0.176099	0.000007	-0.522463	0.000023	-0.000000	-0.000000	0.000000	0.254000	0.000000	-0.232000	0.000000	0.000000	0.000000	
5.471000	-109.230118	686.809753	17.495659	0.622587	0.000000	-0.176304	-0.000001	-0.490809	0.000033	-0.000000	-0.000000	0.000000	0.254000	0.000000	-0.232000	0.000000	0.000000	0.000000	
5.472000	-109.866798	686.710144	17.306196	0.622453	0.000000	-0.176328	-0.000003	-0.506966	0.000005	-0.000000	-0.000000	0.000000	0.254000	0.000000	-0.232000	0.000000	0.000000	0.000000	
5.473000	-110.737724	687.741333	17.335154	0.622307	0.000000	-0.176497	0.000006	-0.385817	0.000013	-0.000000	-0.000000	0.000000	0.254000	0.000000	-0.232000	0.000000	0.000000	0.000000	
5.474000	-111.656288	688.012451	17.314356	0.622216	0.000000	-0.176294	0.000007	-0.269050	0.000042	-0.000000	-0.000000	0.000000	0.254000	0.000000	-0.232000	0.000000	0.000000	0.000000	
5.475000	-112.789848	688.375366	16.997341	0.622099	0.000000	-0.176262	0.000012	-0.311408	0.000020	-0.000000	-0.000000	0.000000	0.254000	0.000000	-0.232000	0.000000	0.000000	0.000000	
5.476000	-113.547646	687.113953	16.878157	0.621559	0.000000	-0.176200	0.000004	-0.272395	-0.000000	-0.000000	-0.000000	0.000000	0.254000	0.000000	-0.232000	0.000000	0.000000	0.000000	
5.477000	-114.248093	686.887146	16.927345	0.621400	0.000000	-0.176196	0.000005	-0.236595	0.000018	-0.000000	-0.000000	0.000000	0.254000	0.000000	-0.232000	0.000000	0.000000	0.000000	
5.478000	-115.045074	687.759766	16.522003	0.621306	0.000000	-0.176107	-0.000001	-0.269784	0.000015	-0.000000	-0.000000	0.000000	0.254000	0.000000	-0.232000	0.000000	0.000000	0.000000	
5.479000	-115.821945	687.832947	16.590414	0.621407	0.000000	-0.176031	0.000008	-0.160531	0.000040	-0.000000	-0.000000	0.000000	0.254000	0.000000	-0.232000	0.000000	0.000000	0.000000	
5.480000	-116.952827	687.519348	16.780413	0.621268	0.000000	-0.175994	-0.000001	-0.028688	-0.000008	-0.000000	-0.000000	0.000000	0.254000	0.000000	-0.232000	0.000000	0.000000	0.000000	
5.481000	-117.512733	687.459473	16.246689	0.621108	0.000000	-0.176007	-0.000004	-0.041637	0.000028	-0.000000	-0.000000	0.000000	0.254000	0.000000	-0.232000	0.000000	0.000000	0.000000	
5.482000	-118.533829	685.875000	15.913177	0.620643	0.000000	-0.175874	0.000008	-0.092389	0.000002	-0.000000	-0.000000	0.000000	0.254000	0.000000	-0.232000	0.000000	0.000000	0.000000	
5.483000	-119.384430	685.074341	15.927693	0.620245	0.000000	-0.175878	0.000006	-0.019649	0.000044	-0.000000	-0.000000	0.000000	0.254000	0.000000	-0.232000	0.000000	0.000000	0.000000	
5.484000	-120.024979	683.674438	15.580599	0.619915	0.000000	-0.175906	0.000007	0.071882	-0.000002	-0.000000	-0.000000	0.000000	0.254000	0.000000	-0.232000	0.000000	0.000000	0.000000	
5.485000	-120.764893	685.126892	15.573609	0.620296	0.000000	-0.176087	0.000014	0.176445	0.000008	-0.000000	-0.000000	0.000000	0.254000	0.000000	-0.232000	0.000000	0.000000	0.000000	
5.486000	-122.183624	684.449463	15.671456	0.620021	0.000000	-0.175881	0.000003	0.181272	0.000018	-0.000000	-0.000000	0.000000	0.254000	0.000000	-0.232000	0.000000	0.000000	0.000000	
5.487000	-123.220772	684.789612	15.627473	0.620054	0.000000	-0.175970	0.000004	0.267117	0.000035	-0.000000	-0.000000	0.000000	0.254000	0.000000	-0.232000	0.000000	0.000000	0.000000	
5.488000	-123.877640	682.802368	15.806754	0.619945	0.000000	-0.175817	0.000005	0.392936	0.000047	-0.000000	-0.000000	0.000000	0.254000	0.000000	-0.232000	0.000000	0.000000	0.000000	
5.489000	-124.657578	681.593994	15.699995	0.619670	0.000000	-0.175728	-0.000002	0.506364	0.000021	-0.000000	-0.000000	0.000000	0.254000	0.000000	-0.232000	0.000000	0.000000	0.000000	
5.490000	-125.887848	679.781250	15.530176	0.619291	0.000000	-0.175726	0.000005	0.529747	0.000041	-0.000000	-0.000000	0.000000	0.254000	0.000000	-0.232000	0.000000	0.000000	0.000000	
5.491000	-126.552193	679.686829	15.235620	0.619368	0.000000	-0.175790	0.000007	0.524468	0.000050	-0.000000	-0.000000	0.000000	0.254000	0.000000	-0.232000	0.000000	0.000000	0.000000	
5.492000	-127.184219	679.248718	14.837576	0.619591	0.000000	-0.175878	0.000002	0.590913	0.000050	-0.000000	-0.000000	0.000000	0.254000	0.000000	-0.232000	0.000000	0.000000	0.000000	
5.493000	-128.153351	678.252441	14.975530	0.619269	0.000000	-0.176085	0.000014	0.731624	0.000037	-0.000000	-0.000000	0.000000	0.254000	0.000000	-0.232000	0.000000	0.000000	0.000000	
